<svg xmlns="http://www.w3.org/2000/svg" width="35.602" height="42.366" viewBox="0 0 35.602 42.366">
  <path id="Apple_Login" d="M30.047,24.638c-.019-3.471,1.551-6.091,4.729-8.021A10.163,10.163,0,0,0,26.765,12.4c-3.358-.265-7.028,1.958-8.371,1.958-1.419,0-4.673-1.863-7.226-1.863C5.89,12.579.281,16.7.281,25.092a23.574,23.574,0,0,0,1.362,7.68c1.211,3.471,5.581,11.984,10.14,11.842,2.384-.057,4.067-1.693,7.17-1.693,3.008,0,4.568,1.693,7.226,1.693,4.6-.066,8.55-7.8,9.7-11.284-6.167-2.9-5.836-8.513-5.836-8.692ZM24.694,9.107a8.909,8.909,0,0,0,2.27-6.857,10.029,10.029,0,0,0-6.422,3.3,9.048,9.048,0,0,0-2.421,6.8c2.469.189,4.72-1.078,6.574-3.244Z" transform="translate(-0.281 -2.25)"/>
</svg>
