<svg id="Group_8770" data-name="Group 8770" xmlns="http://www.w3.org/2000/svg" xmlns:xlink="http://www.w3.org/1999/xlink" width="90.785" height="90.785" viewBox="0 0 90.785 90.785">
  <defs>
    <clipPath id="clip-path">
      <rect width="90.785" height="90.785" fill="none"/>
    </clipPath>
  </defs>
  <g id="Repeat_Grid_3" data-name="Repeat Grid 3" clip-path="url(#clip-path)">
    <g id="Path_5941" data-name="Path 5941" fill="#fff">
      <path d="M 82.78521728515625 90.28521728515625 L 7.999996662139893 90.28521728515625 C 3.864479303359985 90.28521728515625 0.4999968707561493 86.92073822021484 0.4999968707561493 82.78521728515625 L 0.4999968707561493 7.999996662139893 C 0.4999968707561493 3.864479303359985 3.864479303359985 0.4999968707561493 7.999996662139893 0.4999968707561493 L 82.78521728515625 0.4999968707561493 C 86.92073822021484 0.4999968707561493 90.28521728515625 3.864479303359985 90.28521728515625 7.999996662139893 L 90.28521728515625 82.78521728515625 C 90.28521728515625 86.92073822021484 86.92073822021484 90.28521728515625 82.78521728515625 90.28521728515625 Z" stroke="none"/>
      <path d="M 7.999992370605469 0.9999923706054688 C 4.140182495117188 0.9999923706054688 0.9999923706054688 4.140182495117188 0.9999923706054688 7.999992370605469 L 0.9999923706054688 82.78521728515625 C 0.9999923706054688 86.64503479003906 4.140182495117188 89.78522491455078 7.999992370605469 89.78522491455078 L 82.78521728515625 89.78522491455078 C 86.64503479003906 89.78522491455078 89.78522491455078 86.64503479003906 89.78522491455078 82.78521728515625 L 89.78522491455078 7.999992370605469 C 89.78522491455078 4.140182495117188 86.64503479003906 0.9999923706054688 82.78521728515625 0.9999923706054688 L 7.999992370605469 0.9999923706054688 M 7.999992370605469 -7.62939453125e-06 L 82.78521728515625 -7.62939453125e-06 C 87.20349884033203 -7.62939453125e-06 90.78522491455078 3.581718444824219 90.78522491455078 7.999992370605469 L 90.78522491455078 82.78521728515625 C 90.78522491455078 87.20349884033203 87.20349884033203 90.78522491455078 82.78521728515625 90.78522491455078 L 7.999992370605469 90.78522491455078 C 3.581718444824219 90.78522491455078 -7.62939453125e-06 87.20349884033203 -7.62939453125e-06 82.78521728515625 L -7.62939453125e-06 7.999992370605469 C -7.62939453125e-06 3.581718444824219 3.581718444824219 -7.62939453125e-06 7.999992370605469 -7.62939453125e-06 Z" stroke="none" fill="#d4e3ed"/>
    </g>
  </g>
  <path id="Apple_Login" d="M30.047,24.638c-.019-3.471,1.551-6.091,4.729-8.021A10.163,10.163,0,0,0,26.765,12.4c-3.358-.265-7.028,1.958-8.371,1.958-1.419,0-4.673-1.863-7.226-1.863C5.89,12.579.281,16.7.281,25.092a23.574,23.574,0,0,0,1.362,7.68c1.211,3.471,5.581,11.984,10.14,11.842,2.384-.057,4.067-1.693,7.17-1.693,3.008,0,4.568,1.693,7.226,1.693,4.6-.066,8.55-7.8,9.7-11.284-6.167-2.9-5.836-8.513-5.836-8.692ZM24.694,9.107a8.909,8.909,0,0,0,2.27-6.857,10.029,10.029,0,0,0-6.422,3.3,9.048,9.048,0,0,0-2.421,6.8c2.469.189,4.72-1.078,6.574-3.244Z" transform="translate(26.954 21.959)"/>
</svg>
