<svg xmlns="http://www.w3.org/2000/svg" width="55" height="55" viewBox="0 0 55 55">
  <g id="Group_18633" data-name="Group 18633" transform="translate(-32.53 -415.28)">
    <circle id="Ellipse_1840" data-name="Ellipse 1840" cx="27.5" cy="27.5" r="27.5" transform="translate(32.53 415.28)" fill="#d4e3ed"/>
    <path id="chat_2_" data-name="chat (2)" d="M19.673,1H6.492A5.5,5.5,0,0,0,1,6.492v8.787a5.5,5.5,0,0,0,4.394,5.382v3.405A1.1,1.1,0,0,0,7.1,24.98l6.31-4.209h6.261a5.5,5.5,0,0,0,5.492-5.492V6.492A5.5,5.5,0,0,0,19.673,1Zm-2.2,13.181H8.689a1.1,1.1,0,1,1,0-2.2h8.787a1.1,1.1,0,1,1,0,2.2Zm2.2-4.394H6.492a1.1,1.1,0,0,1,0-2.2H19.673a1.1,1.1,0,0,1,0,2.2Z" transform="translate(47.561 430.31)" fill="#596970" opacity="0.9"/>
  </g>
</svg>
