<svg id="copy" xmlns="http://www.w3.org/2000/svg" width="12" height="13.091" viewBox="0 0 12 13.091">
  <path id="Path_4332" data-name="Path 4332" d="M4.773,114.577a2.321,2.321,0,0,1-2.318-2.318v-5.591H1.5a1.5,1.5,0,0,0-1.5,1.5v7.364a1.5,1.5,0,0,0,1.5,1.5H8.318a1.5,1.5,0,0,0,1.5-1.5v-.955Zm0,0" transform="translate(0 -103.941)" fill="#59676f"/>
  <path id="Path_4333" data-name="Path 4333" d="M136.727,1.5a1.5,1.5,0,0,0-1.5-1.5H129.5A1.5,1.5,0,0,0,128,1.5V8.318a1.5,1.5,0,0,0,1.5,1.5h5.727a1.5,1.5,0,0,0,1.5-1.5Zm0,0" transform="translate(-124.727)" fill="#59676f"/>
</svg>
