<svg xmlns="http://www.w3.org/2000/svg" width="14.34" height="14.34" viewBox="0 0 14.34 14.34">
  <path id="copy" d="M8.962,11.95H2.987A2.991,2.991,0,0,1,0,8.962V2.987A2.991,2.991,0,0,1,2.987,0H8.962A2.991,2.991,0,0,1,11.95,2.987V8.962A2.991,2.991,0,0,1,8.962,11.95ZM2.987,1.195A1.792,1.792,0,0,0,1.195,2.987V8.962a1.792,1.792,0,0,0,1.792,1.792H8.962a1.792,1.792,0,0,0,1.792-1.792V2.987A1.792,1.792,0,0,0,8.962,1.195ZM14.34,11.352V3.585a.6.6,0,1,0-1.195,0v7.767a1.792,1.792,0,0,1-1.792,1.792H3.585a.6.6,0,1,0,0,1.195h7.767A2.991,2.991,0,0,0,14.34,11.352Z" fill="#333"/>
</svg>
