<svg xmlns="http://www.w3.org/2000/svg" width="93" height="93" viewBox="0 0 93 93">
  <g id="Group_7224" data-name="Group 7224" transform="translate(-2461 -14501)">
    <rect id="shutterstock_206029852" width="93" height="93" rx="14" transform="translate(2461 14501)" fill="#0242fc"/>
    <g id="Creator_button" data-name="Creator button" transform="translate(2487 14527)">
      <path id="Path_228" data-name="Path 228" d="M70.471,180.891a20.446,20.446,0,1,1,20.471-20.446A20.481,20.481,0,0,1,70.471,180.891Z" transform="translate(-50 -140)" fill="#fff"/>
      <g id="Group_243" data-name="Group 243" transform="translate(10.658 10.633)">
        <path id="Path_134" data-name="Path 134" d="M196.4,382.453H179.227a1.227,1.227,0,0,1,0-2.453H196.4a1.227,1.227,0,0,1,0,2.453Zm0,0" transform="translate(-178 -371.414)" fill="#0242fc"/>
        <path id="Path_135" data-name="Path 135" d="M291.227,287.626A1.227,1.227,0,0,1,290,286.4V269.227a1.227,1.227,0,0,1,2.453,0V286.4a1.227,1.227,0,0,1-1.227,1.227Zm0,0" transform="translate(-281.414 -268)" fill="#0242fc"/>
      </g>
    </g>
  </g>
</svg>
