<svg xmlns="http://www.w3.org/2000/svg" width="30.261" height="30.261" viewBox="0 0 30.261 30.261">
  <g id="Icon_feather-instagram" data-name="Icon feather-instagram" transform="translate(0.75 0.75)">
    <path id="Path_3970" data-name="Path 3970" d="M10.19,3H24.571a7.19,7.19,0,0,1,7.19,7.19V24.571a7.19,7.19,0,0,1-7.19,7.19H10.19A7.19,7.19,0,0,1,3,24.571V10.19A7.19,7.19,0,0,1,10.19,3Z" transform="translate(-3 -3)" fill="none" stroke="#0242FC" stroke-linecap="round" stroke-linejoin="round" stroke-width="1.5"/>
    <path id="Path_3971" data-name="Path 3971" d="M26.99,18.338a7.5,7.5,0,1,1-6.321-6.321,7.5,7.5,0,0,1,6.321,6.321Z" transform="translate(-5.138 -5.107)" fill="none" stroke="#0242FC" stroke-linecap="round" stroke-linejoin="round" stroke-width="1.5"/>
    <path id="Path_3972" data-name="Path 3972" d="M26.25,9.75h0" transform="translate(-3.96 -3.279)" fill="none" stroke="#0242FC" stroke-linecap="round" stroke-linejoin="round" stroke-width="1.5"/>
  </g>
</svg>
