<svg xmlns="http://www.w3.org/2000/svg" width="55" height="55" viewBox="0 0 55 55">
  <g id="Group_18632" data-name="Group 18632" transform="translate(-31.826 -414.576)">
    <circle id="Ellipse_1840" data-name="Ellipse 1840" cx="27.5" cy="27.5" r="27.5" transform="translate(31.826 414.576)" fill="#d4e3ed"/>
    <g id="Layer_2" data-name="Layer 2" transform="translate(47.902 430.652)" opacity="0.9">
      <circle id="Ellipse_1993" data-name="Ellipse 1993" cx="6.522" cy="6.522" r="6.522" transform="translate(2.269 0)" fill="#596970"/>
      <path id="Path_15726" data-name="Path 15726" d="M10.041,11.25A8.8,8.8,0,0,0,1.25,20.041V22.31a.853.853,0,0,0,.582.808,30.132,30.132,0,0,0,8.776,1.177c5.245,0,7.653-1.174,7.753-1.224a.85.85,0,0,0,.471-.761V20.041A8.8,8.8,0,0,0,10.041,11.25Z" transform="translate(-1.25 0.093)" fill="#596970"/>
      <path id="Path_15727" data-name="Path 15727" d="M18.372,13.355a.845.845,0,0,1-.6-.25L15.5,10.836a.851.851,0,1,1,1.2-1.2l1.747,1.747L22.4,8.42A.851.851,0,0,1,23.42,9.781l-4.537,3.4a.856.856,0,0,1-.51.17Z" transform="translate(0.628 -0.31)" fill="#596970"/>
    </g>
  </g>
</svg>
