<svg id="Group_8772" data-name="Group 8772" xmlns="http://www.w3.org/2000/svg" width="90.785" height="90.785" viewBox="0 0 90.785 90.785">
  <g id="Path_5942" data-name="Path 5942" fill="#fff">
    <path d="M 82.78521728515625 90.28521728515625 L 7.999996662139893 90.28521728515625 C 3.864479303359985 90.28521728515625 0.4999968707561493 86.92073822021484 0.4999968707561493 82.78521728515625 L 0.4999968707561493 7.999996662139893 C 0.4999968707561493 3.864479303359985 3.864479303359985 0.4999968707561493 7.999996662139893 0.4999968707561493 L 82.78521728515625 0.4999968707561493 C 86.92073822021484 0.4999968707561493 90.28521728515625 3.864479303359985 90.28521728515625 7.999996662139893 L 90.28521728515625 82.78521728515625 C 90.28521728515625 86.92073822021484 86.92073822021484 90.28521728515625 82.78521728515625 90.28521728515625 Z" stroke="none"/>
    <path d="M 7.999992370605469 0.9999923706054688 C 4.140182495117188 0.9999923706054688 0.9999923706054688 4.140182495117188 0.9999923706054688 7.999992370605469 L 0.9999923706054688 82.78521728515625 C 0.9999923706054688 86.64503479003906 4.140182495117188 89.78522491455078 7.999992370605469 89.78522491455078 L 82.78521728515625 89.78522491455078 C 86.64503479003906 89.78522491455078 89.78522491455078 86.64503479003906 89.78522491455078 82.78521728515625 L 89.78522491455078 7.999992370605469 C 89.78522491455078 4.140182495117188 86.64503479003906 0.9999923706054688 82.78521728515625 0.9999923706054688 L 7.999992370605469 0.9999923706054688 M 7.999992370605469 -7.62939453125e-06 L 82.78521728515625 -7.62939453125e-06 C 87.20349884033203 -7.62939453125e-06 90.78522491455078 3.581718444824219 90.78522491455078 7.999992370605469 L 90.78522491455078 82.78521728515625 C 90.78522491455078 87.20349884033203 87.20349884033203 90.78522491455078 82.78521728515625 90.78522491455078 L 7.999992370605469 90.78522491455078 C 3.581718444824219 90.78522491455078 -7.62939453125e-06 87.20349884033203 -7.62939453125e-06 82.78521728515625 L -7.62939453125e-06 7.999992370605469 C -7.62939453125e-06 3.581718444824219 3.581718444824219 -7.62939453125e-06 7.999992370605469 -7.62939453125e-06 Z" stroke="none" fill="#d4e3ed"/>
  </g>
  <g id="Google_Login" transform="translate(24.209 24.209)">
    <path id="Path_4111" data-name="Path 4111" d="M9.33,152.34l-1.465,5.471-5.356.113a21.086,21.086,0,0,1-.155-19.656h0l4.768.874,2.089,4.74a12.562,12.562,0,0,0,.118,8.458Z" transform="translate(0 -126.764)" fill="#fbbb00"/>
    <path id="Path_4112" data-name="Path 4112" d="M281.847,208.176a21.042,21.042,0,0,1-7.5,20.347h0l-6.006-.306-.85-5.306a12.545,12.545,0,0,0,5.4-6.406H261.628v-8.327h20.219Z" transform="translate(-239.848 -190.791)" fill="#518ef8"/>
    <path id="Path_4113" data-name="Path 4113" d="M62.227,321.431h0a21.056,21.056,0,0,1-31.719-6.44l6.821-5.584a12.519,12.519,0,0,0,18.04,6.41Z" transform="translate(-28 -283.701)" fill="#28b446"/>
    <path id="Path_4114" data-name="Path 4114" d="M60.756,4.846l-6.819,5.583a12.517,12.517,0,0,0-18.454,6.554l-6.857-5.614h0A21.054,21.054,0,0,1,60.756,4.846Z" transform="translate(-26.27)" fill="#f14336"/>
  </g>
</svg>
