<svg xmlns="http://www.w3.org/2000/svg" width="55" height="55" viewBox="0 0 55 55">
  <g id="Group_11415" data-name="Group 11415" transform="translate(0 0.15)">
    <circle id="Ellipse_1840" data-name="Ellipse 1840" cx="27.5" cy="27.5" r="27.5" transform="translate(0 -0.15)" fill="#d4e3ed"/>
    <path id="heart" d="M12.965,22.426a.759.759,0,0,1-.38-.1A45.364,45.364,0,0,1,6.35,17.837,25.72,25.72,0,0,1,2.025,13.2,9.775,9.775,0,0,1,0,7.642,8.028,8.028,0,0,1,2.048,2.265,6.712,6.712,0,0,1,7.045,0a6.934,6.934,0,0,1,5.92,3.511A6.934,6.934,0,0,1,18.885,0a6.751,6.751,0,0,1,4.8,2.044,7.914,7.914,0,0,1,2.241,5.607A9.965,9.965,0,0,1,23.867,13.2a26.053,26.053,0,0,1-4.319,4.633,45.519,45.519,0,0,1-6.2,4.486.76.76,0,0,1-.382.1Z" transform="translate(14.649 17.904)" fill="#596970" opacity="0.9"/>
  </g>
</svg>
