<svg xmlns="http://www.w3.org/2000/svg" width="25.929" height="22.426" viewBox="0 0 25.929 22.426">
  <path id="heart" d="M12.965,22.426a.759.759,0,0,1-.38-.1A45.364,45.364,0,0,1,6.35,17.837,25.72,25.72,0,0,1,2.025,13.2,9.775,9.775,0,0,1,0,7.642,8.028,8.028,0,0,1,2.048,2.265,6.712,6.712,0,0,1,7.045,0a6.934,6.934,0,0,1,5.92,3.511A6.934,6.934,0,0,1,18.885,0a6.751,6.751,0,0,1,4.8,2.044,7.914,7.914,0,0,1,2.241,5.607A9.965,9.965,0,0,1,23.867,13.2a26.053,26.053,0,0,1-4.319,4.633,45.519,45.519,0,0,1-6.2,4.486.76.76,0,0,1-.382.1Z" fill="#596970" opacity="0.9"/>
</svg>
