<svg xmlns="http://www.w3.org/2000/svg" width="105.014" height="154.491" viewBox="0 0 105.014 154.491">
  <g id="Logo" transform="translate(-35 -452.907)">
    <path id="Path_5929" data-name="Path 5929" d="M57.727,590.439h3.848V613.4H57.727v-22.96Z" transform="translate(-3.556 -21.521)" fill="#03f"/>
    <path id="Path_5930" data-name="Path 5930" d="M64.392,607.031V598.72H68.24v8.311c0,3.04,1.617,4.5,4.042,4.5s4.042-1.455,4.042-4.5V598.72h3.849v8.311c0,5.335-3.17,8.084-7.891,8.084s-7.89-2.716-7.89-8.084Z" transform="translate(-4.599 -22.817)" fill="#03f"/>
    <path id="Path_5931" data-name="Path 5931" d="M84.98,606.629a8.571,8.571,0,0,1,17.139,0v1.359h-13.1a4.378,4.378,0,0,0,4.56,3.557,4.488,4.488,0,0,0,3.784-1.52h4.106a8.1,8.1,0,0,1-7.89,5.012,8.206,8.206,0,0,1-8.6-8.408Zm13.065-1.713a4.711,4.711,0,0,0-8.925,0Z" transform="translate(-7.821 -22.739)" fill="#03f"/>
    <path id="Path_5932" data-name="Path 5932" d="M107.156,605.25A7.848,7.848,0,0,1,115.111,597a6.072,6.072,0,0,1,5.335,2.748v-9.313h3.848v14.844c0,5.173-3.492,8.536-8.5,8.536a8.216,8.216,0,0,1-8.634-8.569Zm13.29.161a4.707,4.707,0,1,0-4.689,4.819,4.533,4.533,0,0,0,4.689-4.819Z" transform="translate(-11.291 -21.521)" fill="#03f"/>
    <path id="Path_5933" data-name="Path 5933" d="M133.35,592.758a2.555,2.555,0,1,1,5.109,0,2.555,2.555,0,1,1-5.109,0Zm.614,4.624h3.848v15.975h-3.848V597.382Z" transform="translate(-15.39 -21.479)" fill="#03f"/>
    <path id="Path_5934" data-name="Path 5934" d="M140.787,606.306c0-5.336,3.169-8.084,7.89-8.084s7.89,2.716,7.89,8.084v8.311h-3.848v-8.311c0-3.039-1.617-4.494-4.042-4.494s-4.042,1.455-4.042,4.494v8.311h-3.848v-8.311Z" transform="translate(-16.554 -22.739)" fill="#03f"/>
    <path id="Path_5935" data-name="Path 5935" d="M43.69,597.821a8.69,8.69,0,1,0,8.69,8.69,8.69,8.69,0,0,0-8.69-8.69Zm0,13.449a4.76,4.76,0,1,1,4.759-4.759,4.76,4.76,0,0,1-4.759,4.759Z" transform="translate(0 -22.677)" fill="#03f"/>
    <path id="Path_5936" data-name="Path 5936" d="M40.729,623.791c.013-.013.024-.026.036-.038a4.759,4.759,0,0,1,6.731,6.73l-.039.036,2.779,2.779.038-.036a8.69,8.69,0,1,0-12.289-12.289l-.035.038,2.779,2.779Z" transform="translate(-0.462 -25.901)" fill="#03f"/>
    <path id="Path_5937" data-name="Path 5937" d="M123.375,566.893A26.092,26.092,0,1,0,97.285,540.8a26.092,26.092,0,0,0,26.09,26.092Zm0-40.382a14.29,14.29,0,1,1-14.29,14.29,14.29,14.29,0,0,1,14.29-14.29Z" transform="translate(-9.747 -9.671)" fill="#03f"/>
    <path id="Path_5938" data-name="Path 5938" d="M133.664,490.313c-.037.037-.072.077-.109.115a14.291,14.291,0,0,1-20.21-20.21c.038-.037.077-.072.115-.109l-8.345-8.344c-.037.037-.077.071-.114.109a26.091,26.091,0,1,0,36.9,36.9c.038-.037.072-.077.11-.115l-8.345-8.344Z" transform="translate(-9.758 -1.386)" fill="#03f"/>
    <path id="Path_5939" data-name="Path 5939" d="M61.6,452.907A26.091,26.091,0,1,0,87.693,479,26.091,26.091,0,0,0,61.6,452.907Zm0,40.381A14.29,14.29,0,1,1,75.891,479a14.29,14.29,0,0,1-14.29,14.29Z" transform="translate(-0.08)" fill="#03f"/>
    <path id="Path_5940" data-name="Path 5940" d="M52.711,530.884c.036-.039.071-.078.108-.116a14.291,14.291,0,1,1,20.21,20.21c-.037.037-.077.072-.115.109l8.345,8.345c.037-.038.077-.072.115-.11a26.091,26.091,0,1,0-36.9-36.9c-.038.037-.072.077-.109.115l8.345,8.345Z" transform="translate(-1.466 -9.682)" fill="#03f"/>
  </g>
</svg>
