<svg xmlns="http://www.w3.org/2000/svg" width="207.29" height="76.42" viewBox="0 0 207.29 76.42">
  <g id="GluedIn_text_logo" data-name="GluedIn text logo" transform="translate(1389 58.84)">
    <rect id="Rectangle_1" data-name="Rectangle 1" width="7.6" height="45.32" transform="translate(-1351.16 -58.39)" fill="#03f"/>
    <path id="Path_1" data-name="Path 1" d="M48.94,147.8V131.4h7.6v16.4c0,6,3.19,8.87,7.98,8.87s7.98-2.87,7.98-8.87V131.4h7.6v16.4c0,10.53-6.26,15.96-15.57,15.96-9.33,0-15.59-5.36-15.59-15.96" transform="translate(-1389 -176)" fill="#03f"/>
    <path id="Path_2" data-name="Path 2" d="M109.01,143.78c-1.21-4.21-4.66-6.32-8.81-6.32-4.28,0-7.6,2.17-8.81,6.32Zm-25.79,3.39c0-9.57,7.02-16.6,16.98-16.6s16.85,7.02,16.85,16.6v2.68H91.2c1.02,4.6,4.53,7.02,9,7.02,3.38,0,5.87-.96,7.47-3h8.11c-2.36,6-8.11,9.89-15.58,9.89-9.96,0-16.98-7.02-16.98-16.59" transform="translate(-1389 -176)" fill="#03f"/>
    <path id="Path_3" data-name="Path 3" d="M146.38,147.17c0-5.55-3.7-9.51-9.26-9.51s-9.32,3.96-9.32,9.51,3.77,9.51,9.32,9.51,9.26-3.96,9.26-9.51m-26.24-.32c0-10.79,8.04-16.28,15.7-16.28A11.985,11.985,0,0,1,146.37,136V117.62h7.6v29.3c0,10.21-6.89,16.85-16.79,16.85-10.01-.01-17.04-6.9-17.04-16.92" transform="translate(-1389 -176)" fill="#03f"/>
    <path id="Path_4" data-name="Path 4" d="M164.97,131.4h7.6v31.53h-7.6Zm-1.21-9.13a5.04,5.04,0,1,1,10.08,0,5.04,5.04,0,1,1-10.08,0" transform="translate(-1389 -176)" fill="#03f"/>
    <path id="Path_5" data-name="Path 5" d="M176.14,146.53c0-10.53,6.26-15.96,15.58-15.96s15.57,5.36,15.57,15.96v16.41h-7.6V146.53c0-6-3.19-8.87-7.98-8.87s-7.98,2.87-7.98,8.87v16.41h-7.6V146.53Z" transform="translate(-1389 -176)" fill="#03f"/>
    <path id="Path_6" data-name="Path 6" d="M17.15,156.45a9.395,9.395,0,1,1,9.39-9.4,9.4,9.4,0,0,1-9.39,9.4m0-26.55A17.15,17.15,0,1,0,34.3,147.05,17.152,17.152,0,0,0,17.15,129.9" transform="translate(-1389 -176)" fill="#03f"/>
    <path id="Path_7" data-name="Path 7" d="M10.4,174.8l.07-.07a9.4,9.4,0,0,1,13.29,13.29.572.572,0,0,1-.08.07l5.49,5.49a.27.27,0,0,1,.08-.07A17.154,17.154,0,0,0,4.99,169.25a.462.462,0,0,0-.07.07Z" transform="translate(-1389 -176)" fill="#03f"/>
  </g>
</svg>
