<svg xmlns="http://www.w3.org/2000/svg" width="344.426" height="214.257" viewBox="0 0 344.426 214.257">
  <g id="no_data_on_home_feed_" data-name="no data on home feed " transform="translate(-2.604 -225)">
    <g id="Group_2991" data-name="Group 2991" transform="translate(187.12 246.552) rotate(7)">
      <g id="Rectangle_1650" data-name="Rectangle 1650" transform="translate(0 0)" fill="#596970" stroke="#000" stroke-width="3">
        <rect width="145.269" height="119.633" rx="24" stroke="none"/>
        <rect x="1.5" y="1.5" width="142.269" height="116.633" rx="22.5" fill="none"/>
      </g>
      <g id="Rectangle_1651" data-name="Rectangle 1651" transform="translate(0 80.325)" fill="#d4e3ed" stroke="#000" stroke-width="3">
        <path d="M0,0H145.269a0,0,0,0,1,0,0V15.308a24,24,0,0,1-24,24H24a24,24,0,0,1-24-24V0A0,0,0,0,1,0,0Z" stroke="none"/>
        <path d="M1.5,1.5H143.769a0,0,0,0,1,0,0V15.308a22.5,22.5,0,0,1-22.5,22.5H24a22.5,22.5,0,0,1-22.5-22.5V1.5A0,0,0,0,1,1.5,1.5Z" fill="none"/>
      </g>
      <path id="Path_3824" data-name="Path 3824" d="M8.438,16.876A8.438,8.438,0,1,0,0,8.438,8.438,8.438,0,0,0,8.438,16.876Zm0-12.657A4.219,4.219,0,1,1,4.219,8.438,4.219,4.219,0,0,1,8.438,4.219Z" transform="translate(14.165 91.72)"/>
      <ellipse id="Ellipse_397" data-name="Ellipse 397" cx="5.904" cy="5.904" rx="5.904" ry="5.904" transform="translate(16.569 94.387)" fill="#0242fc"/>
      <rect id="Rectangle_1652" data-name="Rectangle 1652" width="88.016" height="5.982" rx="2.991" transform="translate(35.89 96.561)" fill="#596970"/>
      <path id="Icon_awesome-play" data-name="Icon awesome-play" d="M31.249,15.806,5.331.484A3.515,3.515,0,0,0,0,3.525V34.162A3.531,3.531,0,0,0,5.331,37.2L31.249,21.888a3.531,3.531,0,0,0,0-6.082Z" transform="translate(56.312 27.727)" fill="#d4e3ed"/>
    </g>
    <g id="Group_2992" data-name="Group 2992" transform="translate(23 264.255) rotate(-7)">
      <g id="Rectangle_1650-2" data-name="Rectangle 1650" fill="#596970" stroke="#000" stroke-width="3">
        <rect width="145.269" height="119.633" rx="24" stroke="none"/>
        <rect x="1.5" y="1.5" width="142.269" height="116.633" rx="22.5" fill="none"/>
      </g>
      <g id="Rectangle_1651-2" data-name="Rectangle 1651" transform="translate(0 80.325)" fill="#d4e3ed" stroke="#000" stroke-width="3">
        <path d="M0,0H145.269a0,0,0,0,1,0,0V15.308a24,24,0,0,1-24,24H24a24,24,0,0,1-24-24V0A0,0,0,0,1,0,0Z" stroke="none"/>
        <path d="M1.5,1.5H143.769a0,0,0,0,1,0,0V15.308a22.5,22.5,0,0,1-22.5,22.5H24a22.5,22.5,0,0,1-22.5-22.5V1.5A0,0,0,0,1,1.5,1.5Z" fill="none"/>
      </g>
      <path id="Path_3824-2" data-name="Path 3824" d="M8.438,16.876A8.438,8.438,0,1,0,0,8.438,8.438,8.438,0,0,0,8.438,16.876Zm0-12.657A4.219,4.219,0,1,1,4.219,8.438,4.219,4.219,0,0,1,8.438,4.219Z" transform="translate(14.165 91.72)"/>
      <ellipse id="Ellipse_397-2" data-name="Ellipse 397" cx="5.904" cy="5.904" rx="5.904" ry="5.904" transform="translate(16.569 94.387)" fill="#adbacf"/>
      <rect id="Rectangle_1652-2" data-name="Rectangle 1652" width="88.016" height="5.982" rx="2.991" transform="translate(35.89 96.561)" fill="#596970"/>
      <path id="Icon_awesome-play-2" data-name="Icon awesome-play" d="M31.249,15.806,5.331.484A3.515,3.515,0,0,0,0,3.525V34.162A3.531,3.531,0,0,0,5.331,37.2L31.249,21.888a3.531,3.531,0,0,0,0-6.082Z" transform="translate(56.312 27.727)" fill="#d4e3ed"/>
    </g>
    <ellipse id="Ellipse_402" data-name="Ellipse 402" cx="139.213" cy="11.212" rx="139.213" ry="11.212" transform="translate(35.604 383.834)" fill="#d6d6d6"/>
    <g id="Group_2989" data-name="Group 2989" transform="translate(71.108 225)">
      <g id="Rectangle_1650-3" data-name="Rectangle 1650" transform="translate(0 0)" fill="#0242fc" stroke="#000" stroke-width="3">
        <rect width="207.418" height="170.98" rx="24" stroke="none"/>
        <rect x="1.5" y="1.5" width="204.418" height="167.98" rx="22.5" fill="none"/>
      </g>
      <g id="Rectangle_1651-3" data-name="Rectangle 1651" transform="translate(0 115.855)" fill="#d4e3ed" stroke="#000" stroke-width="3">
        <path d="M0,0H207.418a0,0,0,0,1,0,0V31.125a24,24,0,0,1-24,24H24a24,24,0,0,1-24-24V0A0,0,0,0,1,0,0Z" stroke="none"/>
        <path d="M1.5,1.5H205.918a0,0,0,0,1,0,0V31.125a22.5,22.5,0,0,1-22.5,22.5H24a22.5,22.5,0,0,1-22.5-22.5V1.5A0,0,0,0,1,1.5,1.5Z" fill="none"/>
      </g>
      <path id="Path_3824-3" data-name="Path 3824" d="M116.044,72.088A12.044,12.044,0,1,0,104,60.044,12.044,12.044,0,0,0,116.044,72.088Zm0-18.066a6.022,6.022,0,1,1-6.022,6.022,6.022,6.022,0,0,1,6.022-6.022Z" transform="translate(-83.829 83.111)"/>
      <ellipse id="Ellipse_397-3" data-name="Ellipse 397" cx="8.428" cy="8.428" rx="8.428" ry="8.428" transform="translate(23.604 134.918)" fill="#aadbff"/>
      <rect id="Rectangle_1652-3" data-name="Rectangle 1652" width="125.198" height="8.409" rx="4.204" transform="translate(51.387 138.279)" fill="#596970"/>
      <path id="Icon_awesome-play-3" data-name="Icon awesome-play" d="M44.6,22.564,7.609.693A5.017,5.017,0,0,0,0,5.033V48.765a5.04,5.04,0,0,0,7.609,4.341L44.6,31.245A5.04,5.04,0,0,0,44.6,22.564Z" transform="translate(80.332 39.767)" fill="#d4e3ed"/>
    </g>
  </g>
</svg>
