<svg xmlns="http://www.w3.org/2000/svg" width="18.496" height="18" viewBox="0 0 18.496 18">
  <path id="Union_87" data-name="Union 87" d="M3628.163-22439.037v-13.922a2.036,2.036,0,0,0-2.038-2.039H3611.7a2.037,2.037,0,0,0-2.038,2.039v13.922a2.039,2.039,0,0,0,2.038,2.039h14.421A2.039,2.039,0,0,0,3628.163-22439.037Zm-11.7-11.887a2.036,2.036,0,0,1-2.038,2.035,2.036,2.036,0,0,1-2.037-2.035,2.036,2.036,0,0,1,2.037-2.035A2.036,2.036,0,0,1,3616.459-22450.924Zm-4.075,9.168,2.356-2.355a.509.509,0,0,1,.72,0l1.677,1.676,3.873-5.75a.509.509,0,0,1,.72,0l3.715,3.715v4.754h-13.062Z" transform="translate(-3609.667 22454.998)" fill="#fff"/>
</svg>
