<svg xmlns="http://www.w3.org/2000/svg" width="27.641" height="30.435" viewBox="0 0 27.641 30.435">
  <g id="Share" transform="translate(1.25 1.25)">
    <path id="Path_3817" data-name="Path 3817" d="M30.538,7.019A4.019,4.019,0,1,1,26.519,3,4.019,4.019,0,0,1,30.538,7.019Z" transform="translate(-5.397 -3)" fill="none" stroke="#777" stroke-linecap="round" stroke-linejoin="round" stroke-width="2.5"/>
    <path id="Path_3818" data-name="Path 3818" d="M12.538,17.519A4.019,4.019,0,1,1,8.519,13.5,4.019,4.019,0,0,1,12.538,17.519Z" transform="translate(-4.5 -3.552)" fill="none" stroke="#777" stroke-linecap="round" stroke-linejoin="round" stroke-width="2.5"/>
    <path id="Path_3819" data-name="Path 3819" d="M30.538,28.019A4.019,4.019,0,1,1,26.519,24,4.019,4.019,0,0,1,30.538,28.019Z" transform="translate(-5.397 -4.104)" fill="none" stroke="#777" stroke-linecap="round" stroke-linejoin="round" stroke-width="2.5"/>
    <path id="Path_3820" data-name="Path 3820" d="M12.885,20.265l9.15,5.332" transform="translate(-4.882 -4.025)" fill="none" stroke="#777" stroke-linecap="round" stroke-linejoin="round" stroke-width="2.5"/>
    <path id="Path_3821" data-name="Path 3821" d="M22.022,9.765,12.885,15.1" transform="translate(-4.883 -3.402)" fill="none" stroke="#777" stroke-linecap="round" stroke-linejoin="round" stroke-width="2.5"/>
  </g>
</svg>
