<svg xmlns="http://www.w3.org/2000/svg" width="6.615" height="26.458" viewBox="0 0 6.615 26.458">
  <g id="_3_more_white_dots" data-name="3 more white dots" transform="translate(-50.015 366.615) rotate(-90)">
    <g id="Group_125" data-name="Group 125" transform="translate(340.157 56.63) rotate(-90)">
      <g id="Group_124" data-name="Group 124" transform="translate(0 0)">
        <path id="Path_117" data-name="Path 117" d="M5.646.969a3.307,3.307,0,1,1-4.677,0,3.307,3.307,0,0,1,4.677,0" transform="translate(0)" fill="#fff"/>
        <path id="Path_118" data-name="Path 118" d="M5.646.969a3.307,3.307,0,1,1-4.677,0,3.307,3.307,0,0,1,4.677,0" transform="translate(0 9.922)" fill="#fff"/>
        <path id="Path_119" data-name="Path 119" d="M5.646.969a3.307,3.307,0,1,1-4.677,0,3.307,3.307,0,0,1,4.677,0" transform="translate(0 19.843)" fill="#fff"/>
      </g>
    </g>
  </g>
</svg>
