<svg id="voucher" xmlns="http://www.w3.org/2000/svg" width="116.245" height="65.285" viewBox="0 0 116.245 65.285">
  <path id="Path_13288" data-name="Path 13288" d="M113.893,26.625a5.4,5.4,0,0,0,2.352-4.415V5.342A5.349,5.349,0,0,0,110.9,0H5.342A5.349,5.349,0,0,0,0,5.342V22.211a5.4,5.4,0,0,0,2.352,4.415,7.406,7.406,0,0,1,3.108,6.017,7.406,7.406,0,0,1-3.108,6.017A5.4,5.4,0,0,0,0,43.073V59.942a5.349,5.349,0,0,0,5.343,5.343H110.9a5.348,5.348,0,0,0,5.343-5.343V43.073a5.4,5.4,0,0,0-2.352-4.415,7.378,7.378,0,0,1,0-12.033Zm-1.054-4.415a2.041,2.041,0,0,1-.922,1.642,10.783,10.783,0,0,0,0,17.58,2.041,2.041,0,0,1,.922,1.642V59.942a1.939,1.939,0,0,1-1.937,1.937H5.342a1.939,1.939,0,0,1-1.937-1.937V43.073a2.041,2.041,0,0,1,.922-1.642,10.816,10.816,0,0,0,4.537-8.79,10.816,10.816,0,0,0-4.537-8.79,2.039,2.039,0,0,1-.922-1.642V5.342A1.939,1.939,0,0,1,5.342,3.405H110.9a1.939,1.939,0,0,1,1.937,1.937Zm0,0" transform="translate(0 0)" fill="#adbacf"/>
  <path id="Path_13289" data-name="Path 13289" d="M250.2,32.062a1.7,1.7,0,0,0-1.7,1.7v3.641a1.7,1.7,0,0,0,3.406,0V33.765A1.7,1.7,0,0,0,250.2,32.062Zm0,0" transform="translate(-192.08 -24.783)" fill="#adbacf"/>
  <path id="Path_13290" data-name="Path 13290" d="M250.2,224.453a1.7,1.7,0,0,0-1.7,1.7v3.64a1.7,1.7,0,0,0,3.406,0v-3.64A1.7,1.7,0,0,0,250.2,224.453Zm0,0" transform="translate(-192.08 -173.493)" fill="#adbacf"/>
  <path id="Path_13291" data-name="Path 13291" d="M250.2,128.258a1.7,1.7,0,0,0-1.7,1.7v3.64a1.7,1.7,0,1,0,3.406,0v-3.64A1.7,1.7,0,0,0,250.2,128.258Zm0,0" transform="translate(-192.08 -99.138)" fill="#adbacf"/>
  <path id="Path_13292" data-name="Path 13292" d="M250.2,80.16a1.7,1.7,0,0,0-1.7,1.7V85.5a1.7,1.7,0,0,0,3.406,0v-3.64A1.7,1.7,0,0,0,250.2,80.16Zm0,0" transform="translate(-192.08 -61.96)" fill="#adbacf"/>
  <path id="Path_13293" data-name="Path 13293" d="M250.2,176.355a1.7,1.7,0,0,0-1.7,1.7v3.64a1.7,1.7,0,0,0,3.406,0v-3.64A1.7,1.7,0,0,0,250.2,176.355Zm0,0" transform="translate(-192.08 -136.315)" fill="#adbacf"/>
  <path id="Path_13294" data-name="Path 13294" d="M340.856,64.487a1.7,1.7,0,0,0-2.39.3l-25.479,32.76a1.7,1.7,0,1,0,2.687,2.09l25.48-32.76A1.7,1.7,0,0,0,340.856,64.487Zm0,0" transform="translate(-241.648 -49.568)" fill="#adbacf"/>
  <path id="Path_13295" data-name="Path 13295" d="M311.776,78.455a7.163,7.163,0,1,0-7.162-7.162A7.171,7.171,0,0,0,311.776,78.455Zm0-10.92a3.757,3.757,0,1,1-3.757,3.757A3.762,3.762,0,0,1,311.776,67.535Zm0,0" transform="translate(-235.453 -49.569)" fill="#adbacf"/>
  <path id="Path_13296" data-name="Path 13296" d="M391.937,160.32a7.163,7.163,0,1,0,7.162,7.163A7.172,7.172,0,0,0,391.937,160.32Zm0,10.921a3.757,3.757,0,1,1,3.757-3.758A3.762,3.762,0,0,1,391.937,171.241Zm0,0" transform="translate(-297.414 -123.921)" fill="#adbacf"/>
  <path id="Path_13297" data-name="Path 13297" d="M93.131,60.846H86a26.072,26.072,0,0,0,5.453-3.619,5.343,5.343,0,0,0-7.556-7.556,25.242,25.242,0,0,0-3.5,5.236,25.266,25.266,0,0,0-3.5-5.236,5.343,5.343,0,1,0-7.556,7.556,26.039,26.039,0,0,0,5.452,3.619H67.651a3.527,3.527,0,0,0-3.523,3.523v21.84a3.527,3.527,0,0,0,3.523,3.523h25.48a3.526,3.526,0,0,0,3.523-3.523V64.368a3.527,3.527,0,0,0-3.523-3.523ZM86.3,52.078a1.937,1.937,0,0,1,2.74,2.74c-1.185,1.186-4.216,2.85-6.941,4.2C83.451,56.3,85.116,53.265,86.3,52.078Zm-14.56,0a1.939,1.939,0,0,1,2.74,0c1.185,1.185,2.85,4.215,4.2,6.94-2.724-1.351-5.756-3.015-6.941-4.2A1.939,1.939,0,0,1,71.742,52.079Zm21.39,34.246H67.651a.117.117,0,0,1-.117-.117V73.351h16.5a1.7,1.7,0,0,0,0-3.406h-16.5V64.368a.117.117,0,0,1,.117-.117h25.48a.117.117,0,0,1,.117.117v5.577H91.311a1.7,1.7,0,0,0,0,3.406h1.937V86.208A.117.117,0,0,1,93.131,86.325Zm0,0" transform="translate(-49.569 -37.185)" fill="#adbacf"/>
</svg>
